<?xml version="1.0" encoding="utf-8"?>
<!-- Generator: Adobe Illustrator 19.0.0, SVG Export Plug-In . SVG Version: 6.00 Build 0)  -->
<svg version="1.1" id="Camada_1" xmlns="http://www.w3.org/2000/svg" xmlns:xlink="http://www.w3.org/1999/xlink" x="0px" y="0px"
	 viewBox="0 0 587.8 600" style="enable-background:new 0 0 587.8 600;" xml:space="preserve">
<style type="text/css">
	.st0{fill-rule:evenodd;clip-rule:evenodd;fill:#052F93;}
	.st1{fill-rule:evenodd;clip-rule:evenodd;fill:#FD2500;}
	.st2{fill-rule:evenodd;clip-rule:evenodd;fill:#464646;}
	.st3{fill-rule:evenodd;clip-rule:evenodd;fill:#474747;}
	.st4{fill-rule:evenodd;clip-rule:evenodd;fill:#484848;}
</style>
<path id="XMLID_27_" class="st0" d="M282.8,4.9c41.1,12.8,64.4,25.6,91.6,51.3c18.4,17.3,34,45,39.2,70.9
	c-19.4,3.9-35.1,10.3-50.2,18.8c-24.5,13.9-26.4,20.3-38.6,30.5c-17.1,14.3-51.2,70.9-51.1,85.5c0.4-0.6,8.4-9.9,9.5-11.1
	c3.4-3.7,7.3-6.7,10.6-10.1l22.8-20c56-42.9,139-33.2,130.2,80.7c-4.1,53.8-25.5,88.2-48.9,122.2c-11.6,16.9-45.3,54.8-60.7,67.7
	c-4.2,3.5-7.3,6.5-11.9,10.3l-11.4,10.2c24.2-4.7,64.8-26.5,82.9-38.2c27.2-17.5,43.3-32.6,63.3-55.6c36-41.5,60.6-103.5,63.2-176.1
	c2.8-79.9-38.6-155.9-104.6-195.4C385.6,26.9,317.8,0.8,282.8,4.9L282.8,4.9z"/>
<path id="XMLID_26_" class="st1" d="M292,513.7l-38.7-29.6c-13.5-10.9-25.6-21.9-37.8-32.7c-12.2-10.9-22.7-23.2-33.9-36.5
	c-20.8-24.6-44.2-60.5-44.3-95.4c-0.1-21.4,6.8-36.8,20.3-50.4c11.2-11.2,30.6-19.1,51.8-18.6c24.5,0.6,35.9,9.2,54.1,16.7
	c-7.2-17.2-33.2-35.1-53-44.2c-23.1-10.6-50.3-17.1-78.6-19.5c-2.3-35,7.9-66.3,24.1-94.9c4.6-8,12.8-17.8,15.8-24.2
	c-18.8,4.5-42.8,28.8-55.7,41c-6.4,6.1-15.6,19-20.9,27.5c-36.6,58.5-48.6,127-23.6,193.9c18.4,49.1,51,83.2,85.9,107.5
	C188.9,476.1,243.8,506.2,292,513.7L292,513.7z"/>
<path id="XMLID_25_" class="st0" d="M320.4,65c-50.3,14.4-27.4,85,19.1,72.3c16.9-4.6,32.4-23.5,26.2-46.3
	C361.2,74.4,342.5,58.7,320.4,65L320.4,65z"/>
<path id="XMLID_24_" class="st1" d="M189,122.8c-48.7,10.8-32,83.5,16.4,72.6C252,185,237.5,112.1,189,122.8L189,122.8z"/>
<path class="st2" d="M65.4,572.3c0-17.8-2.5-23.5,5.6-23.5C83.3,548.8,89.3,571.9,65.4,572.3L65.4,572.3z M53.6,546.9
	c4.7,2.4,4.9,2.3,4.9,10.2c0,18.1,3.1,37.4-3.9,41.5l17.7,1.2c-8.4-4.7-6.9,0.2-6.9-24.7c9.4,0.3,7.7,5.1,17.9,19.6
	c4.4,6.3,5.8,5.8,16.4,4.9c-9.6-6.6-15.6-11.2-22.1-26.6c4.8-1.6,8.8-2.7,10.9-8.2c9-23.8-31.9-18.7-37-18.7L53.6,546.9L53.6,546.9z
	"/>
<path class="st2" d="M243,549.4c9-1.7,14.1,3.3,14.2,11.9c0.1,9.3-4.9,13.2-14.8,11.7L243,549.4L243,549.4z M232.4,547.9
	c5.5,3.9,3,28,3,41c0,10.8-5.9,10.7-5.9,10.6c-0.2-0.3-0.7,0.2-1,0.4h20.9c-0.3-0.2-0.8-0.3-1-0.4c-7.7-3.5-7.2-9.7-5.6-24
	c13.9,1.8,28.4-3.2,21.3-20.6c-4.7-11.6-22.6-8.9-35.6-8.9L232.4,547.9L232.4,547.9z"/>
<path class="st2" d="M23.3,549.4c9-1.7,14.1,3.3,14.2,11.9c0.1,9.3-4.9,13.1-14.8,11.7L23.3,549.4L23.3,549.4z M10.8,546.9
	c0.3,0.2,1.5,0.7,1.9,1c5.5,3.9,3,28,3,41c0,11.1-2.7,8.4-6.9,11l20.9,0c-4.7-3-9.3,0.2-6.6-24.4c13.9,1.9,28.4-3.2,21.3-20.5
	c-4.7-11.6-22.6-8.9-35.6-8.9L10.8,546.9L10.8,546.9z"/>
<path id="XMLID_17_" class="st2" d="M101.5,546c1,0.7,4.5,1.7,5.9,3.8c2.5,4,1.2,32.9,1.2,39c0,11-3.1,8.4-7.1,11l37.9,0l2.8-11.6
	c-0.3,0.3-0.7,0.7-0.9,0.9l-5,5.6c-2.2,1.7-4.7,2.4-8.6,2.4c-15.2,0-12.3,2.7-12.3-23.4c19.1-0.5,13.4,0.3,19.2,8l0-19
	c-5,7.1,0.8,8.8-19.2,7.9l0-21.8c13.1-0.4,16.9-1.9,21.7,4.5c0.2,0.2,0.2,4.2,1.4,2c0.1-0.2,0.5,0.7,0.8,1.1l-0.3-10.5L101.5,546
	L101.5,546z"/>
<path id="XMLID_16_" class="st3" d="M467.7,601.3c9.2,0,16.1-8.7,13.9-19.2c-1.6-7.7-9.9-11.3-16.5-15.5c-15.9-10-8-18-2.5-18.9
	c11.4-2,12.7,8.3,16.1,14.4c1.3-23,0.4-15-4.9-15.5c-3.6-0.3-4.2-1.3-7.7-1.7c-13.5-1.5-26.1,15.6-4.6,29.5
	c5.1,3.3,22.8,12.8,10.9,22.1c-13.3,10.4-20.9-12-21.2-12.4l-0.5,6.3c-0.5,13.3,1.4,8.6,3.3,9.1L467.7,601.3L467.7,601.3z"/>
<path class="st3" d="M287.6,557.6l7.9,21.6l-16.4-0.1L287.6,557.6L287.6,557.6z M273.5,595.8c2.5-17.7,7.1-13.8,23.4-13.8l4,13.8
	c-1.5,1.8-0.5,0.7-2.3,2.3l16.6,1.5c-5.5-4-5.9-3.1-8.9-11.1c-1.9-5-3.8-10.4-5.6-15.2c-2.3-6.3-8-24.3-11.4-28.2
	c-4,4.2-9.2,22-11.9,29c-3.8,10-5.3,19.6-13.8,25.5l15.3,0.2L273.5,595.8L273.5,595.8z"/>
<path id="XMLID_13_" class="st4" d="M318.8,546.4c11.1,5.9,6.3,4.1,7.1,34.2c0.4,13.1,5.1,20.9,18.8,20.7c14-0.2,18.5-8.6,18.8-22.1
	c0.7-29.2-3.7-27.3,7.1-33.1l-17.2,0.3c9.3,5,7.5,3.9,7.1,30.1c-0.2,11.8-2.3,22-14.4,22.1c-13,0.1-13.3-11.8-13.3-23.5
	c0-31.5-1-22.9,7-29.1L318.8,546.4L318.8,546.4z"/>
<path class="st3" d="M552.9,557.6l7.9,21.6l-16.4-0.1L552.9,557.6L552.9,557.6z M538.9,595.8c2.5-17.7,7.1-13.8,23.4-13.8l4,13.8
	c-1.5,1.8-0.5,0.7-2.3,2.3l16.6,1.5c-5.5-4-5.9-3.1-8.9-11.1c-3.3-8.7-13.6-39.4-17-43.3c-4,4.2-9.2,22-11.9,29
	c-3.8,10-5.3,19.6-13.8,25.5l12.4-1.6C539.4,596.6,540.3,597.3,538.9,595.8L538.9,595.8z"/>
<path id="XMLID_10_" class="st3" d="M147.8,546c5.6,5.2,4.8,1.7,8.9,12.5c1.9,5.1,14.4,40,18,42.3l16.6-43.7
	c2.8-7.4,2.5-6.2,7.7-10.9l-15-0.2c3.8,3.7,6.2,2.6,4.1,10.4l-12,31c-2.9-3.9-13.4-31.7-13.9-37.6l5.3-3.5L147.8,546L147.8,546z"/>
<path id="XMLID_9_" class="st3" d="M521.2,599.5c-5-2.6-6.1-0.7-6.9-7.8l0-43c4,0,8.2-0.7,11.5,1.3c3.7,2.2,4.5,7.5,4.9,6.7
	c0.1-0.2,0.4,0.7,0.6,1l-0.5-11.6l-39.7-0.1l0,11.1c5.1-7.4,4.4-9.3,16.3-8c0,9.6,0,19.1,0,28.7c0,25.2-0.6,17.1-7.1,22.2
	L521.2,599.5L521.2,599.5z"/>
<path id="XMLID_8_" class="st2" d="M373.7,546c0.3,0.2,0.8,0.3,1,0.4c0.2,0.1,0.7,0.3,1,0.4l4,2.9c2.2,3.6,1.2,32.4,1.2,37.7
	c0,13-6,12.1-6.1,12c-0.2-0.3-0.7,0.2-1,0.4l37.7-0.3l3.8-14.6c-4.1,5.1-4.6,11-12.5,12.1c-10.5,1.5-15,1.6-15-8.2
	c0-47.3-2.3-35.9,8.1-42.8L373.7,546L373.7,546z"/>
<path id="XMLID_7_" class="st3" d="M202.7,546.4c6.1,3.2,6.9,1.5,7.2,10.6c0.2,5.3-0.1,11.3-0.1,16.7c0,24.2,2,21-7.1,26.1l20.9,0.1
	c-2.4-1.5-4.5-1.5-6.1-4.1c-1.6-2.8-1.1-35-0.9-40.2c0.3-9.2,2.3-6,7-9.6L202.7,546.4L202.7,546.4z"/>
<path id="XMLID_6_" class="st3" d="M421.1,546.4c9.4,4.9,7.1,2.7,7.1,27.3c0,24.4,1.9,20.9-7.1,26.1l16.9-2c-3.3-2.4-3-3.7-3-8.9
	c0-5.5,0.1-11.1,0.1-16.7c0-13.7-2.3-20.9,3.8-24.7L421.1,546.4L421.1,546.4z"/>
</svg>
