<?xml version="1.0" encoding="UTF-8"?>
<!DOCTYPE svg PUBLIC "-//W3C//DTD SVG 1.1//EN" "http://www.w3.org/Graphics/SVG/1.1/DTD/svg11.dtd">
<!-- Creator: CorelDRAW 2017 -->
<svg xmlns="http://www.w3.org/2000/svg" xml:space="preserve" width="107px" height="21px" version="1.1" style="shape-rendering:geometricPrecision; text-rendering:geometricPrecision; image-rendering:optimizeQuality; fill-rule:evenodd; clip-rule:evenodd"
viewBox="0 0 9.07 1.82"
 xmlns:xlink="http://www.w3.org/1999/xlink">
 <defs>
  <style type="text/css">
   <![CDATA[
    .fil0 {fill:#a8cbcb}
    .fil1 {fill:#a8cbcb;fill-rule:nonzero}
   ]]>
  </style>
 </defs>
 <g id="PowerClip_x0020_Contents">
  <metadata id="CorelCorpID_0Corel-Layer"/>
  <path class="fil0" d="M2.39 0.19l-0.19 -0.19 -0.86 0.86 0.19 0.19 0.86 -0.86zm0.58 -0.19l-1.44 1.44 -0.57 -0.57 -0.19 0.19 0.76 0.76 1.63 -1.63 -0.19 -0.19zm-2.97 1.06l0.76 0.76 0.19 -0.19 -0.76 -0.76 -0.19 0.19z"/>
  <path class="fil1" d="M4.14 1.14l-0.23 0 0 0.53 -0.3 0 0 -1.45 0.54 0c0.17,0 0.3,0.03 0.39,0.11 0.1,0.08 0.14,0.19 0.14,0.32 0,0.1 -0.02,0.19 -0.06,0.25 -0.05,0.07 -0.11,0.12 -0.2,0.16l0.32 0.59 0 0.02 -0.32 0 -0.28 -0.53zm-0.23 -0.25l0.24 0c0.07,0 0.13,-0.02 0.17,-0.05 0.04,-0.04 0.06,-0.09 0.06,-0.16 0,-0.07 -0.02,-0.12 -0.06,-0.16 -0.03,-0.04 -0.09,-0.06 -0.17,-0.06l-0.24 0 0 0.43z"/>
  <path id="1" class="fil1" d="M5.39 1.69c-0.16,0 -0.29,-0.05 -0.39,-0.15 -0.1,-0.1 -0.15,-0.23 -0.15,-0.39l0 -0.02c0,-0.11 0.02,-0.21 0.06,-0.29 0.05,-0.09 0.1,-0.16 0.18,-0.2 0.08,-0.05 0.17,-0.07 0.26,-0.07 0.15,0 0.27,0.05 0.35,0.14 0.09,0.09 0.13,0.22 0.13,0.39l0 0.12 -0.69 0c0.01,0.07 0.04,0.13 0.09,0.17 0.04,0.04 0.1,0.06 0.17,0.06 0.12,0 0.2,-0.04 0.26,-0.12l0.15 0.16c-0.05,0.06 -0.11,0.11 -0.18,0.14 -0.07,0.04 -0.16,0.06 -0.24,0.06zm-0.04 -0.89c-0.05,0 -0.1,0.02 -0.14,0.06 -0.03,0.04 -0.05,0.09 -0.06,0.17l0.4 0 0 -0.03c-0.01,-0.06 -0.02,-0.11 -0.06,-0.15 -0.03,-0.03 -0.08,-0.05 -0.14,-0.05z"/>
  <path id="2" class="fil1" d="M6.44 1.45c0.05,0 0.09,-0.01 0.13,-0.04 0.03,-0.03 0.05,-0.07 0.05,-0.12l0.27 0c0,0.08 -0.02,0.14 -0.06,0.2 -0.04,0.06 -0.09,0.11 -0.16,0.15 -0.07,0.03 -0.14,0.05 -0.23,0.05 -0.15,0 -0.27,-0.05 -0.36,-0.15 -0.09,-0.1 -0.13,-0.23 -0.13,-0.41l0 -0.02c0,-0.16 0.04,-0.29 0.13,-0.39 0.09,-0.1 0.21,-0.15 0.36,-0.15 0.14,0 0.24,0.04 0.32,0.11 0.09,0.08 0.13,0.18 0.13,0.31l-0.27 0c0,-0.06 -0.02,-0.1 -0.05,-0.14 -0.04,-0.03 -0.08,-0.05 -0.13,-0.05 -0.07,0 -0.12,0.03 -0.16,0.07 -0.03,0.05 -0.05,0.13 -0.05,0.24l0 0.03c0,0.11 0.02,0.19 0.05,0.24 0.04,0.05 0.09,0.07 0.16,0.07z"/>
  <path id="3" class="fil1" d="M7.68 1.67c-0.02,-0.03 -0.03,-0.06 -0.03,-0.1 -0.07,0.08 -0.16,0.12 -0.27,0.12 -0.11,0 -0.2,-0.04 -0.27,-0.1 -0.07,-0.06 -0.1,-0.13 -0.1,-0.23 0,-0.11 0.04,-0.2 0.13,-0.26 0.08,-0.06 0.2,-0.09 0.36,-0.09l0.14 0 0 -0.06c0,-0.05 -0.02,-0.09 -0.04,-0.12 -0.03,-0.03 -0.07,-0.05 -0.12,-0.05 -0.05,0 -0.09,0.01 -0.12,0.04 -0.02,0.02 -0.04,0.05 -0.04,0.09l-0.29 0c0,-0.06 0.02,-0.12 0.06,-0.17 0.04,-0.05 0.09,-0.1 0.17,-0.13 0.07,-0.03 0.14,-0.04 0.23,-0.04 0.13,0 0.24,0.03 0.32,0.1 0.08,0.07 0.11,0.16 0.11,0.28l0 0.47c0.01,0.1 0.02,0.18 0.05,0.23l0 0.02 -0.29 0zm-0.24 -0.2c0.04,0 0.08,-0.01 0.12,-0.03 0.03,-0.02 0.06,-0.05 0.08,-0.08l0 -0.18 -0.11 0c-0.15,0 -0.22,0.05 -0.23,0.15l0 0.01c0,0.04 0.01,0.07 0.04,0.09 0.02,0.02 0.06,0.04 0.1,0.04z"/>
  <path id="4" class="fil1" d="M8.1 1.12c0,-0.17 0.04,-0.3 0.11,-0.4 0.08,-0.1 0.18,-0.15 0.31,-0.15 0.11,0 0.19,0.04 0.26,0.12l0 -0.55 0.29 0 0 1.53 -0.26 0 -0.01 -0.12c-0.07,0.09 -0.17,0.14 -0.28,0.14 -0.13,0 -0.23,-0.05 -0.3,-0.15 -0.08,-0.1 -0.12,-0.24 -0.12,-0.42zm0.29 0.02c0,0.1 0.02,0.18 0.05,0.23 0.04,0.06 0.09,0.08 0.15,0.08 0.09,0 0.16,-0.03 0.19,-0.11l0 -0.43c-0.03,-0.07 -0.1,-0.11 -0.18,-0.11 -0.14,0 -0.21,0.11 -0.21,0.34z"/>
 </g>
</svg>
